<svg width="861" height="604" viewBox="0 0 861 604" fill="none" xmlns="http://www.w3.org/2000/svg">
<path d="M758.297 252.159C770.471 264.928 784.054 266.965 799.045 258.272C792.754 248.19 791.257 237.224 792.933 225.673H763.73C765.024 235.824 764.676 245.275 758.297 252.159Z" fill="white"/>
<path d="M806.516 586.299L822.137 578.15L828.928 491.898V446.395L792.933 445.716L803.12 491.219L806.516 586.299Z" fill="white"/>
<path d="M761.237 586.299L745.617 578.15L738.826 491.898V446.395L774.82 445.716L764.633 491.219L761.237 586.299Z" fill="white"/>
<path d="M737.243 455.904L775.275 452.508L781.387 417.871L788.858 451.829L830.286 449.112C831.191 432.61 828.892 415.626 823.495 398.176L732.489 396.139L737.243 455.904Z" fill="black"/>
<path d="M697.713 325.824L651.964 290.596C651.489 290.23 650.967 289.931 650.412 289.705L643.763 286.999C638.422 284.826 628.249 277.599 633.211 270.157C637.211 264.157 652.522 274.906 654.405 278.888C655.001 280.141 655.977 281.174 657.195 281.838L666.492 286.933C666.718 287.057 666.951 287.167 667.19 287.264L702.586 301.611C703.567 302.009 704.629 302.167 705.684 302.072C706.738 301.976 707.754 301.631 708.649 301.064L715.066 296.995C715.979 296.416 717.019 296.068 718.097 295.982C719.175 295.896 720.257 296.073 721.251 296.499C722.245 296.925 723.12 297.587 723.8 298.427C724.48 299.267 724.946 300.261 725.156 301.321L727.277 312.026C727.582 313.567 727.332 315.166 726.572 316.541C725.811 317.916 724.588 318.977 723.12 319.536L704.142 326.77C703.079 327.175 701.93 327.301 700.804 327.135C699.679 326.97 698.614 326.518 697.713 325.824V325.824Z" fill="white"/>
<path d="M706.211 300.157C718.877 296.761 717.547 314.456 727.211 323.157L746.211 308.157L735.205 254.876C732.253 255.72 729.537 257.238 727.272 259.312C725.007 261.386 723.256 263.958 722.156 266.825L706.211 300.157Z" fill="black"/>
<path d="M729.772 399.534H825.532C810.034 357.771 811.543 314.817 824.739 271.046C824.96 270.319 824.921 269.538 824.628 268.837C824.336 268.136 823.808 267.559 823.135 267.206L795.649 252.838C784.86 259.859 773.264 257.701 761.013 248.084L731.13 256.234C739.265 305.091 739.496 352.945 729.772 399.534Z" fill="black"/>
<path d="M753.717 602.251L713.81 603.942C712.072 604.016 710.369 603.444 709.027 602.337C707.686 601.23 706.801 599.666 706.544 597.946V597.946C706.284 596.209 706.683 594.437 707.661 592.979C708.64 591.52 710.128 590.479 711.834 590.061L718.603 588.402L745.207 572.982C749.148 577.063 754.576 580.514 761.211 583.453L761.288 594.295C761.303 596.343 760.522 598.318 759.109 599.802C757.697 601.286 755.764 602.164 753.717 602.251V602.251Z" fill="black"/>
<path d="M813.704 601.645L853.611 603.336C855.349 603.41 857.052 602.838 858.394 601.731C859.735 600.624 860.62 599.06 860.877 597.34V597.34C861.137 595.603 860.738 593.831 859.76 592.373C858.781 590.914 857.293 589.873 855.587 589.455L848.818 587.796L822.214 572.376C818.273 576.457 812.845 579.908 806.211 582.847L806.133 593.689C806.118 595.738 806.899 597.712 808.312 599.196C809.724 600.68 811.657 601.558 813.704 601.645V601.645Z" fill="black"/>
<path d="M775.275 237.897C787.278 237.897 797.008 228.167 797.008 216.165C797.008 204.162 787.278 194.432 775.275 194.432C763.272 194.432 753.542 204.162 753.542 216.165C753.542 228.167 763.272 237.897 775.275 237.897Z" fill="white"/>
<path d="M809.232 392.743L802.053 406.704C801.419 407.936 801.053 409.288 800.98 410.671C800.906 412.054 801.126 413.438 801.625 414.73C802.124 416.022 802.891 417.195 803.875 418.169C804.859 419.144 806.039 419.9 807.336 420.386V420.386C808.709 420.901 810.18 421.102 811.64 420.974C813.101 420.846 814.515 420.392 815.777 419.646C817.039 418.9 818.119 417.881 818.936 416.664C819.753 415.446 820.287 414.061 820.498 412.61L823.495 392.064L834.361 340.448L833.682 314.641H811.949C819.362 333.836 815.684 362.149 809.232 392.743Z" fill="white"/>
<path d="M808.553 317.357H837.757L833.518 285.33C832.943 280.987 831.289 276.856 828.708 273.316C826.127 269.776 822.7 266.939 818.741 265.063L808.553 317.357Z" fill="black"/>
<path d="M798.38 204.194C798.814 201.291 798.632 198.329 797.845 195.501C797.058 192.673 795.684 190.042 793.812 187.781C790.104 183.393 783.889 179.802 773.578 181.496C751.08 185.193 744.593 203.921 746.797 208.631C749.001 213.341 755.757 224.26 755.757 224.26C755.757 224.26 750.799 213.452 756.18 211.252C761.562 209.052 782.387 200.385 789.656 204.289C791.714 205.322 793.461 206.882 794.72 208.81C795.978 210.738 796.703 212.965 796.821 215.265L798.38 204.194Z" fill="black"/>
<path d="M426.408 113.746L417.67 118.18C407.606 98.3622 394.272 80.3831 378.23 64.9985C299.449 -10.7394 173.738 -8.26327 98.0001 70.5183C22.2621 149.3 24.7383 275.01 103.52 350.748C118.514 365.192 135.692 377.182 154.421 386.275L150.146 395.091C120.46 380.677 94.6304 359.406 74.7904 333.035C54.9504 306.665 41.67 275.952 36.0464 243.434C30.4229 210.916 32.6177 177.527 42.4494 146.025C52.2811 114.523 69.4675 85.8126 92.5887 62.266C115.71 38.7193 144.102 21.0123 175.42 10.6079C206.737 0.20344 240.081 -2.5997 272.696 2.43003C305.311 7.45977 336.261 20.178 362.988 39.5339C389.716 58.8898 411.455 84.3278 426.408 113.746V113.746Z" fill="#E6E6E6"/>
<path d="M130.791 296.033C117.939 309.402 110.923 327.329 111.289 345.87C111.654 364.412 119.37 382.049 132.738 394.901C146.107 407.753 164.034 414.769 182.576 414.403C201.117 414.038 218.754 406.322 231.606 392.954L243.644 380.432L142.829 283.512L130.791 296.033Z" fill="#E6E6E6"/>
<path d="M136.074 276.4C133.213 279.383 131.652 283.378 131.734 287.51C131.815 291.642 133.532 295.573 136.508 298.441L228.976 387.336C231.956 390.201 235.952 391.765 240.086 391.683C244.219 391.602 248.151 389.882 251.016 386.901C253.881 383.921 255.445 379.925 255.364 375.791C255.282 371.658 253.562 367.726 250.582 364.861L158.115 275.966C155.132 273.105 151.137 271.544 147.005 271.626C142.873 271.707 138.942 273.424 136.074 276.4Z" fill="#535461"/>
<path d="M413.409 203.845L425.447 191.323C438.299 177.954 445.314 160.027 444.949 141.486C444.584 122.945 436.868 105.308 423.499 92.4557C416.88 86.0918 409.071 81.0941 400.52 77.7479C391.969 74.4016 382.843 72.7724 373.662 72.9533C355.121 73.3185 337.484 81.0342 324.632 94.4031L312.594 106.925L413.409 203.845Z" fill="#E6E6E6"/>
<path d="M305.221 100.455C302.361 103.438 300.8 107.433 300.881 111.565C300.962 115.697 302.68 119.628 305.656 122.496L398.123 211.391C401.104 214.253 405.099 215.814 409.231 215.731C413.362 215.648 417.292 213.928 420.156 210.949C423.019 207.97 424.583 203.976 424.503 199.844C424.423 195.713 422.706 191.782 419.729 188.916L327.262 100.021C324.279 97.1603 320.284 95.5994 316.152 95.6808C312.02 95.7622 308.089 97.4792 305.221 100.455V100.455Z" fill="#535461"/>
<path d="M344.228 305.89V298.667C344.228 298.667 375.745 280.939 401.352 298.667V305.233L344.228 305.89Z" fill="#535461"/>
<path d="M631.164 305.89V298.667C631.164 298.667 662.68 280.939 688.288 298.667V305.233L631.164 305.89Z" fill="#535461"/>
<path d="M438.779 305.233H407.918C407.918 305.233 400.039 296.041 373.775 296.697C347.511 297.354 342.258 305.233 342.258 305.233C342.258 305.233 316.322 322.633 310.413 344.301C310.413 344.301 278.568 439.837 277.911 514.689C277.254 589.542 306.145 600.048 321.247 602.018C336.349 603.987 363.269 601.361 389.533 535.044L400.696 496.305C400.696 496.305 402.666 473.323 426.303 487.769C449.941 502.214 470.952 479.889 470.952 479.889H559.594C559.594 479.889 589.141 498.274 616.062 483.829C616.062 483.829 626.567 470.04 636.416 516.659C636.416 516.659 666.62 612.523 713.239 602.674C759.858 592.825 754.605 512.72 754.605 512.72C754.605 512.72 748.367 390.263 722.76 346.927C722.76 346.927 698.137 301.95 681.722 299.98C681.722 299.98 646.265 293.414 632.477 299.324L624.598 305.89L438.779 305.233Z" fill="#E6E6E6"/>
<path d="M367.209 426.705C398.758 426.705 424.334 401.129 424.334 369.58C424.334 338.031 398.758 312.456 367.209 312.456C335.66 312.456 310.085 338.031 310.085 369.58C310.085 401.129 335.66 426.705 367.209 426.705Z" fill="#535461"/>
<path d="M665.307 426.705C696.856 426.705 722.431 401.129 722.431 369.58C722.431 338.031 696.856 312.456 665.307 312.456C633.758 312.456 608.182 338.031 608.182 369.58C608.182 401.129 633.758 426.705 665.307 426.705Z" fill="#535461"/>
<path d="M377.163 356.842L369.547 363.579C368.902 364.147 368.072 364.46 367.212 364.46C366.353 364.46 365.523 364.147 364.878 363.579L357.248 356.842C356.875 356.513 356.576 356.109 356.37 355.657C356.164 355.204 356.056 354.713 356.053 354.216V335.68C356.055 334.744 356.428 333.847 357.09 333.186C357.753 332.525 358.65 332.154 359.586 332.154H374.852C375.787 332.152 376.685 332.522 377.347 333.182C378.01 333.842 378.383 334.738 378.384 335.673V354.203C378.38 354.704 378.269 355.199 378.059 355.654C377.848 356.109 377.543 356.514 377.163 356.842Z" fill="#E6E6E6"/>
<path d="M377.163 382.312L369.547 375.582C368.902 375.014 368.072 374.7 367.212 374.7C366.353 374.7 365.523 375.014 364.878 375.582L357.248 382.318C356.875 382.647 356.576 383.051 356.37 383.504C356.164 383.956 356.056 384.447 356.053 384.945V403.461C356.052 404.396 356.421 405.294 357.081 405.956C357.741 406.619 358.638 406.992 359.573 406.993H374.852C375.787 406.995 376.685 406.625 377.347 405.965C378.01 405.305 378.383 404.409 378.384 403.474V384.951C378.38 384.45 378.269 383.955 378.059 383.5C377.848 383.045 377.543 382.64 377.163 382.312V382.312Z" fill="#E6E6E6"/>
<path d="M354.477 379.547L361.214 371.918C361.782 371.273 362.095 370.443 362.095 369.583C362.095 368.724 361.782 367.894 361.214 367.249L354.477 359.62C354.148 359.247 353.744 358.948 353.292 358.742C352.839 358.536 352.348 358.428 351.851 358.425H333.335C332.399 358.426 331.502 358.799 330.841 359.462C330.18 360.124 329.809 361.021 329.809 361.957V377.223C329.807 378.158 330.177 379.056 330.837 379.718C331.497 380.381 332.393 380.754 333.328 380.756H351.858C352.355 380.75 352.845 380.64 353.297 380.432C353.748 380.224 354.151 379.922 354.477 379.547V379.547Z" fill="#E6E6E6"/>
<path d="M379.947 379.547L373.223 371.911C372.654 371.267 372.34 370.437 372.34 369.577C372.34 368.717 372.654 367.887 373.223 367.243L379.96 359.613C380.289 359.24 380.693 358.94 381.146 358.735C381.598 358.529 382.089 358.421 382.587 358.418H401.103C402.038 358.416 402.935 358.786 403.598 359.446C404.26 360.106 404.634 361.002 404.635 361.937V377.217C404.637 378.152 404.267 379.049 403.607 379.712C402.947 380.374 402.051 380.747 401.116 380.749H382.593C382.092 380.748 381.597 380.641 381.141 380.434C380.684 380.226 380.277 379.924 379.947 379.547V379.547Z" fill="#E6E6E6"/>
<path d="M444.688 473.323C467.534 473.323 486.054 454.803 486.054 431.957C486.054 409.111 467.534 390.591 444.688 390.591C421.842 390.591 403.322 409.111 403.322 431.957C403.322 454.803 421.842 473.323 444.688 473.323Z" fill="#535461"/>
<path d="M587.828 473.323C610.674 473.323 629.194 454.803 629.194 431.957C629.194 409.111 610.674 390.591 587.828 390.591C564.982 390.591 546.462 409.111 546.462 431.957C546.462 454.803 564.982 473.323 587.828 473.323Z" fill="#535461"/>
<path d="M444.688 459.535C459.919 459.535 472.266 447.188 472.266 431.958C472.266 416.727 459.919 404.38 444.688 404.38C429.458 404.38 417.111 416.727 417.111 431.958C417.111 447.188 429.458 459.535 444.688 459.535Z" fill="#E6E6E6"/>
<path d="M444.688 450.999C440.922 450.999 437.241 449.882 434.109 447.79C430.978 445.698 428.537 442.724 427.096 439.244C425.655 435.765 425.278 431.936 426.013 428.243C426.747 424.549 428.561 421.156 431.224 418.493C433.887 415.83 437.28 414.017 440.973 413.282C444.667 412.547 448.496 412.924 451.975 414.365C455.455 415.807 458.428 418.247 460.521 421.379C462.613 424.51 463.73 428.192 463.73 431.958C463.724 437.006 461.716 441.846 458.146 445.416C454.577 448.985 449.737 450.993 444.688 450.999V450.999ZM444.688 414.229C441.182 414.229 437.754 415.269 434.839 417.217C431.924 419.165 429.651 421.934 428.309 425.173C426.968 428.413 426.617 431.977 427.301 435.416C427.985 438.855 429.673 442.014 432.152 444.493C434.632 446.973 437.791 448.661 441.23 449.345C444.669 450.029 448.233 449.678 451.473 448.336C454.712 446.995 457.481 444.722 459.429 441.807C461.377 438.891 462.417 435.464 462.417 431.958C462.411 427.257 460.542 422.751 457.218 419.428C453.895 416.104 449.388 414.235 444.688 414.229V414.229Z" fill="#535461"/>
<path d="M587.828 459.535C603.058 459.535 615.405 447.188 615.405 431.958C615.405 416.727 603.058 404.38 587.828 404.38C572.597 404.38 560.25 416.727 560.25 431.958C560.25 447.188 572.597 459.535 587.828 459.535Z" fill="#E6E6E6"/>
<path d="M587.828 450.999C584.062 450.999 580.38 449.882 577.249 447.79C574.118 445.698 571.677 442.724 570.236 439.244C568.794 435.765 568.417 431.936 569.152 428.243C569.887 424.549 571.7 421.156 574.363 418.493C577.026 415.83 580.419 414.017 584.113 413.282C587.807 412.547 591.635 412.924 595.115 414.365C598.594 415.807 601.568 418.247 603.66 421.379C605.753 424.51 606.869 428.192 606.869 431.958C606.863 437.006 604.855 441.846 601.286 445.416C597.716 448.985 592.876 450.993 587.828 450.999ZM587.828 414.229C584.321 414.229 580.894 415.269 577.978 417.217C575.063 419.165 572.791 421.934 571.449 425.173C570.107 428.413 569.756 431.977 570.44 435.416C571.124 438.855 572.813 442.014 575.292 444.493C577.771 446.973 580.93 448.661 584.369 449.345C587.808 450.029 591.373 449.678 594.612 448.336C597.851 446.995 600.62 444.722 602.568 441.807C604.516 438.891 605.556 435.464 605.556 431.958C605.551 427.257 603.681 422.751 600.358 419.428C597.034 416.104 592.528 414.235 587.828 414.229V414.229Z" fill="#535461"/>
<path d="M517.571 448.373C524.099 448.373 529.39 443.081 529.39 436.554C529.39 430.026 524.099 424.735 517.571 424.735C511.044 424.735 505.752 430.026 505.752 436.554C505.752 443.081 511.044 448.373 517.571 448.373Z" fill="#535461"/>
<path d="M499.508 399.685C500.933 399.685 502.089 398.53 502.089 397.105C502.089 395.68 500.933 394.524 499.508 394.524C498.083 394.524 496.928 395.68 496.928 397.105C496.928 398.53 498.083 399.685 499.508 399.685Z" fill="#535461"/>
<path d="M509.173 399.685C510.598 399.685 511.754 398.53 511.754 397.105C511.754 395.68 510.598 394.524 509.173 394.524C507.748 394.524 506.593 395.68 506.593 397.105C506.593 398.53 507.748 399.685 509.173 399.685Z" fill="#535461"/>
<path d="M507.886 411.931C509.311 411.931 510.467 410.776 510.467 409.35C510.467 407.925 509.311 406.77 507.886 406.77C506.461 406.77 505.306 407.925 505.306 409.35C505.306 410.776 506.461 411.931 507.886 411.931Z" fill="#535461"/>
<path d="M516.915 412.259C518.365 412.259 519.541 411.083 519.541 409.633C519.541 408.182 518.365 407.006 516.915 407.006C515.464 407.006 514.288 408.182 514.288 409.633C514.288 411.083 515.464 412.259 516.915 412.259Z" fill="#535461"/>
<path d="M525.93 411.931C527.355 411.931 528.51 410.776 528.51 409.35C528.51 407.925 527.355 406.77 525.93 406.77C524.505 406.77 523.349 407.925 523.349 409.35C523.349 410.776 524.505 411.931 525.93 411.931Z" fill="#535461"/>
<path d="M504.019 406.133C505.444 406.133 506.599 404.978 506.599 403.553C506.599 402.127 505.444 400.972 504.019 400.972C502.594 400.972 501.438 402.127 501.438 403.553C501.438 404.978 502.594 406.133 504.019 406.133Z" fill="#535461"/>
<path d="M512.318 406.35C513.769 406.35 514.945 405.174 514.945 403.724C514.945 402.273 513.769 401.097 512.318 401.097C510.868 401.097 509.692 402.273 509.692 403.724C509.692 405.174 510.868 406.35 512.318 406.35Z" fill="#535461"/>
<path d="M520.854 406.35C522.305 406.35 523.481 405.174 523.481 403.724C523.481 402.273 522.305 401.097 520.854 401.097C519.404 401.097 518.228 402.273 518.228 403.724C518.228 405.174 519.404 406.35 520.854 406.35Z" fill="#535461"/>
<path d="M529.797 406.133C531.222 406.133 532.378 404.978 532.378 403.553C532.378 402.127 531.222 400.972 529.797 400.972C528.372 400.972 527.217 402.127 527.217 403.553C527.217 404.978 528.372 406.133 529.797 406.133Z" fill="#535461"/>
<path d="M519.625 449.136C521.076 449.136 522.251 447.96 522.251 446.51C522.251 445.059 521.076 443.883 519.625 443.883C518.175 443.883 516.999 445.059 516.999 446.51C516.999 447.96 518.175 449.136 519.625 449.136Z" fill="#535461"/>
<path d="M526.107 399.784C527.558 399.784 528.733 398.608 528.733 397.158C528.733 395.707 527.558 394.531 526.107 394.531C524.656 394.531 523.481 395.707 523.481 397.158C523.481 398.608 524.656 399.784 526.107 399.784Z" fill="#535461"/>
<path d="M533.665 399.685C535.09 399.685 536.245 398.53 536.245 397.105C536.245 395.68 535.09 394.524 533.665 394.524C532.239 394.524 531.084 395.68 531.084 397.105C531.084 398.53 532.239 399.685 533.665 399.685Z" fill="#535461"/>
<path d="M419.409 310.829C418.194 310.83 417.03 311.314 416.171 312.172C415.312 313.031 414.829 314.196 414.828 315.41V329.199C414.829 330.414 415.312 331.578 416.171 332.437C417.03 333.296 418.194 333.779 419.409 333.78H422.692C423.906 333.779 425.071 333.296 425.93 332.437C426.789 331.578 427.272 330.414 427.273 329.199V315.41C427.272 314.196 426.789 313.031 425.93 312.172C425.071 311.314 423.906 310.83 422.692 310.829H419.409Z" fill="#535461"/>
<path d="M611.137 310.829C609.922 310.83 608.758 311.313 607.899 312.172C607.04 313.031 606.557 314.196 606.556 315.41V329.199C606.557 330.414 607.04 331.578 607.899 332.437C608.758 333.296 609.922 333.779 611.137 333.78H614.42C615.635 333.779 616.799 333.296 617.658 332.437C618.517 331.578 619 330.414 619.001 329.199V315.41C619 314.196 618.517 313.031 617.658 312.172C616.799 311.313 615.635 310.83 614.42 310.829H611.137Z" fill="#535461"/>
<path d="M665.963 350.539C674.667 350.539 681.722 343.483 681.722 334.78C681.722 326.077 674.667 319.022 665.963 319.022C657.26 319.022 650.205 326.077 650.205 334.78C650.205 343.483 657.26 350.539 665.963 350.539Z" fill="#E6E6E6"/>
<path d="M632.477 384.025C641.18 384.025 648.235 376.97 648.235 368.267C648.235 359.564 641.18 352.509 632.477 352.509C623.774 352.509 616.718 359.564 616.718 368.267C616.718 376.97 623.774 384.025 632.477 384.025Z" fill="#E6E6E6"/>
<path d="M700.763 382.056C709.467 382.056 716.522 375 716.522 366.297C716.522 357.594 709.467 350.539 700.763 350.539C692.06 350.539 685.005 357.594 685.005 366.297C685.005 375 692.06 382.056 700.763 382.056Z" fill="#E6E6E6"/>
<path d="M668.59 416.855C677.293 416.855 684.348 409.8 684.348 401.097C684.348 392.394 677.293 385.338 668.59 385.338C659.887 385.338 652.831 392.394 652.831 401.097C652.831 409.8 659.887 416.855 668.59 416.855Z" fill="#E6E6E6"/>
<path d="M449.12 301.637C445.599 301.641 442.223 303.041 439.733 305.531C437.243 308.021 435.843 311.397 435.839 314.918V373.684C435.843 377.205 437.243 380.581 439.733 383.07C442.223 385.56 445.599 386.961 449.12 386.965H584.052C587.573 386.961 590.949 385.56 593.439 383.07C595.928 380.581 597.329 377.205 597.333 373.684V314.918C597.329 311.397 595.928 308.021 593.439 305.531C590.949 303.041 587.573 301.641 584.052 301.637H449.12Z" fill="#535461"/>
<path d="M676.669 342.003H655.3L665.616 324.318L676.669 342.003ZM657.586 340.69H674.299L665.655 326.858L657.586 340.69Z" fill="#535461"/>
<path d="M641.341 376.146H623.613V360.388H641.341V376.146ZM624.926 374.833H640.028V361.701H624.926V374.833Z" fill="#535461"/>
<path d="M700.764 376.146C698.816 376.146 696.911 375.568 695.292 374.486C693.672 373.404 692.41 371.866 691.664 370.066C690.919 368.266 690.724 366.286 691.104 364.376C691.484 362.465 692.422 360.71 693.799 359.333C695.177 357.955 696.932 357.017 698.842 356.637C700.753 356.257 702.733 356.452 704.533 357.198C706.332 357.943 707.87 359.206 708.953 360.825C710.035 362.445 710.613 364.349 710.613 366.297C710.61 368.908 709.571 371.412 707.725 373.258C705.878 375.105 703.375 376.143 700.764 376.146ZM700.764 357.761C699.075 357.761 697.425 358.262 696.021 359.2C694.618 360.138 693.524 361.471 692.877 363.03C692.231 364.59 692.062 366.306 692.392 367.962C692.721 369.618 693.534 371.139 694.728 372.333C695.922 373.526 697.443 374.339 699.098 374.669C700.754 374.998 702.47 374.829 704.03 374.183C705.59 373.537 706.923 372.443 707.861 371.039C708.799 369.635 709.299 367.985 709.299 366.297C709.297 364.034 708.397 361.864 706.796 360.264C705.196 358.664 703.027 357.764 700.764 357.761Z" fill="#535461"/>
<path d="M661.503 393.246L660.575 394.174L675.348 408.948L676.277 408.019L661.503 393.246Z" fill="#535461"/>
<path d="M675.686 393.235L660.586 407.682L661.494 408.631L676.594 394.184L675.686 393.235Z" fill="#535461"/>
<path d="M139.57 151.598C103.72 161.481 64.4618 168.922 50.395 157.379C58.0967 144.557 62.5388 131.92 62.9156 119.512C63.0005 113.835 65.2999 108.416 69.3234 104.409C71.9872 101.836 75.2023 99.9038 78.7247 98.7592C82.2471 97.6146 85.9841 97.2878 89.6517 97.8038L98.9558 99.1095C99.269 99.1534 99.5806 99.2033 99.8905 99.2591C104.356 100.105 108.445 102.329 111.583 105.617C114.72 108.905 116.75 113.094 117.385 117.595C119.345 131.049 125.937 142.697 139.57 151.598Z" fill="black"/>
<path d="M174.152 279.242L188.09 282.116C189.154 282.335 190.156 282.789 191.024 283.444C191.891 284.099 192.601 284.939 193.104 285.903C193.606 286.867 193.887 287.931 193.927 289.017C193.966 290.103 193.764 291.185 193.334 292.183V292.183C192.918 293.148 192.299 294.011 191.52 294.716C190.741 295.42 189.819 295.948 188.818 296.265C187.816 296.582 186.758 296.679 185.716 296.551C184.674 296.422 183.671 296.071 182.776 295.521L161.457 282.408L125.246 197.282L144.001 191.857L174.152 279.242Z" fill="white"/>
<path d="M74.8677 390.943L64.3147 394.012L56.3267 377.515L64.4497 373.282L74.8677 390.943Z" fill="#A0616A"/>
<path d="M69.5056 461.626L56.5576 458.198L58.5846 435.953L69.7276 436.639L69.5056 461.626Z" fill="white"/>
<path d="M70.8559 375.522L57.1422 384.547L4.39779 324.887C3.25371 323.592 2.40886 322.062 1.92336 320.404C1.43786 318.747 1.32364 317.002 1.58881 315.296C1.85398 313.589 2.49203 311.961 3.45757 310.529C4.42311 309.097 5.69242 307.895 7.17519 307.009L72.8817 267.748L82.9455 296.657L48.7319 328.764L70.8559 375.522Z" fill="black"/>
<path d="M82.405 406.752C82.3706 406.796 82.3362 406.841 82.3016 406.886C81.4251 412.017 79.8858 416.698 76.4481 420.087C75.4289 422.386 73.5989 424.229 71.3073 425.263C69.0158 426.298 66.4234 426.453 64.0251 425.698V425.698C61.7633 424.986 59.8191 423.51 58.5252 421.523C57.2313 419.536 56.668 417.16 56.9316 414.804L59.4942 391.899C65.6413 390.486 70.3296 386.99 72.7026 380.188L78.6768 384.258C80.4448 385.452 81.9508 386.995 83.1029 388.79C84.2551 390.586 85.0292 392.598 85.3781 394.703C85.727 396.808 85.6433 398.962 85.1321 401.034C84.6209 403.105 83.693 405.051 82.405 406.752V406.752Z" fill="black"/>
<path d="M88.9063 146.692C100.564 146.692 110.014 137.242 110.014 125.585C110.014 113.927 100.564 104.477 88.9063 104.477C77.2489 104.477 67.7987 113.927 67.7987 125.585C67.7987 137.242 77.2489 146.692 88.9063 146.692Z" fill="white"/>
<path d="M107.185 159.327L73.9094 186.886L71.3177 175.542L77.1259 166.689C78.7377 158.002 77.6971 148.424 74.9273 138.263L96.6375 138.283C97.5748 146.494 100.771 153.657 107.185 159.327Z" fill="white"/>
<path d="M116.554 231.617L71.6312 245.301L68.1363 229.324C59.7176 218.02 56.058 207.703 61.5657 199.285L58.7941 186.614C66.7448 180.354 72.9971 173.949 76.4303 167.304L104.07 156.504L124.388 157.754L130.388 177.861L116.554 231.617Z" fill="#060606"/>
<path d="M148.468 194.106C138.892 194.004 129.521 196.876 121.646 202.324L124.388 157.754C127.172 158.126 129.81 159.216 132.045 160.917C134.279 162.618 136.033 164.871 137.132 167.456L148.468 194.106Z" fill="black"/>
<path d="M70.7154 441.963L56.457 438.454L58.5557 317.301L77.702 296.334L73.4161 269.754L70.6428 239.977L117.411 228.38C133.219 257.083 142.773 283.179 128.826 299.48L70.7154 441.963Z" fill="black"/>
<path d="M67.4406 482.869C67.3766 482.894 67.3126 482.919 67.2485 482.944C63.1083 487.751 58.5593 491.671 52.8401 493.049C50.3314 494.809 47.2626 495.582 44.2195 495.223C41.1765 494.863 38.3725 493.396 36.343 491.1V491.1C34.4289 488.935 33.3265 486.172 33.2243 483.284C33.1222 480.396 34.0266 477.562 35.7829 475.267L52.8534 452.962C60.1598 455.35 67.2519 454.646 74.0038 449.036L77.6844 457.039C78.7796 459.398 79.3828 461.955 79.4572 464.554C79.5315 467.153 79.0755 469.74 78.1169 472.157C77.1583 474.574 75.7172 476.77 73.8816 478.612C72.046 480.454 69.8544 481.902 67.4406 482.869V482.869Z" fill="black"/>
<path d="M15.3545 293.814L2.83945 304.53C1.80091 305.419 1.00364 306.556 0.521579 307.835C0.0395151 309.115 -0.111754 310.495 0.0817902 311.848C0.275335 313.202 0.807433 314.484 1.62876 315.577C2.45008 316.67 3.53405 317.538 4.78018 318.101V318.101C6.65612 318.948 8.78358 319.051 10.7325 318.389C12.6814 317.727 14.3063 316.35 15.2789 314.536L24.329 297.656L65.8327 221.917L50.2231 218.983L15.3545 293.814Z" fill="white"/>
<path d="M68.3336 224.045C60.227 221.598 52.6336 220.157 46.7444 222.059C47.9789 206.782 50.5232 193.136 58.794 186.614L70.5516 187.996L68.3336 224.045Z" fill="black"/>
<path d="M112.47 120.69L67.3245 117.913L67.88 108.884C83.6392 98.2574 98.6875 99.1833 113.025 111.661L112.47 120.69Z" fill="black"/>
</svg>
