<svg width="543" height="552" viewBox="0 0 543 552" fill="none" xmlns="http://www.w3.org/2000/svg">
<path d="M476.408 141.746L467.67 146.18C457.606 126.362 444.272 108.383 428.23 92.9985C349.448 17.2606 223.738 19.7367 148 98.5183C72.2621 177.3 74.7383 303.01 153.52 378.748C168.514 393.192 185.692 405.182 204.421 414.275L200.146 423.091C170.46 408.677 144.63 387.406 124.79 361.035C104.95 334.665 91.6699 303.952 86.0464 271.434C80.4229 238.916 82.6176 205.527 92.4493 174.025C102.281 142.523 119.467 113.813 142.589 90.266C165.71 66.7193 194.102 49.0123 225.42 38.6079C256.737 28.2034 290.081 25.4003 322.696 30.43C355.311 35.4598 386.261 48.178 412.988 67.5339C439.716 86.8898 461.455 112.328 476.408 141.746V141.746Z" fill="#E6E6E6"/>
<path d="M180.791 324.033C167.939 337.402 160.923 355.329 161.289 373.87C161.654 392.412 169.37 410.049 182.738 422.901C196.107 435.753 214.034 442.769 232.576 442.403C251.117 442.038 268.754 434.322 281.606 420.954L293.644 408.432L192.829 311.512L180.791 324.033Z" fill="#E6E6E6"/>
<path d="M186.074 304.4C183.213 307.383 181.652 311.378 181.734 315.51C181.815 319.642 183.532 323.573 186.508 326.441L278.976 415.336C281.956 418.201 285.952 419.765 290.086 419.683C294.219 419.602 298.151 417.882 301.016 414.901C303.881 411.921 305.445 407.925 305.364 403.791C305.282 399.658 303.562 395.726 300.582 392.861L208.115 303.966C205.132 301.105 201.137 299.544 197.005 299.626C192.873 299.707 188.942 301.424 186.074 304.4Z" fill="#535461"/>
<path d="M463.409 231.845L475.446 219.323C488.299 205.954 495.314 188.027 494.949 169.486C494.584 150.945 486.868 133.308 473.499 120.456C466.879 114.092 459.071 109.094 450.52 105.748C441.969 102.402 432.843 100.772 423.662 100.953C405.121 101.318 387.484 109.034 374.631 122.403L362.594 134.925L463.409 231.845Z" fill="#E6E6E6"/>
<path d="M355.221 128.455C352.361 131.438 350.8 135.433 350.881 139.565C350.962 143.697 352.68 147.628 355.656 150.496L448.123 239.391C451.104 242.253 455.099 243.814 459.231 243.731C463.362 243.648 467.292 241.928 470.156 238.949C473.019 235.97 474.583 231.976 474.503 227.844C474.423 223.713 472.706 219.782 469.729 216.916L377.262 128.021C374.279 125.16 370.284 123.599 366.152 123.681C362.02 123.762 358.089 125.479 355.221 128.455V128.455Z" fill="#535461"/>
<path d="M189.57 179.598C153.72 189.481 114.462 196.922 100.395 185.379C108.097 172.557 112.539 159.92 112.916 147.512C113.001 141.835 115.3 136.416 119.323 132.409C121.987 129.836 125.202 127.904 128.725 126.759C132.247 125.615 135.984 125.288 139.652 125.804L148.956 127.109C149.269 127.153 149.581 127.203 149.89 127.259C154.356 128.105 158.445 130.329 161.583 133.617C164.72 136.905 166.75 141.094 167.385 145.595C169.345 159.049 175.937 170.697 189.57 179.598Z" fill="#2F2E41"/>
<path d="M224.152 307.242L238.09 310.116C239.154 310.335 240.156 310.789 241.024 311.444C241.891 312.099 242.601 312.939 243.104 313.903C243.606 314.867 243.887 315.931 243.927 317.017C243.966 318.103 243.764 319.185 243.334 320.183V320.183C242.918 321.148 242.299 322.011 241.52 322.716C240.741 323.42 239.819 323.948 238.818 324.265C237.816 324.582 236.758 324.679 235.716 324.551C234.673 324.422 233.671 324.071 232.776 323.521L211.457 310.408L175.246 225.282L194.001 219.857L224.152 307.242Z" fill="white"/>
<path d="M124.868 418.943L114.315 422.012L106.327 405.515L114.45 401.282L124.868 418.943Z" fill="#A0616A"/>
<path d="M119.506 489.626L106.558 486.198L108.585 463.953L119.728 464.639L119.506 489.626Z" fill="white"/>
<path d="M120.856 403.522L107.142 412.547L54.3978 352.887C53.2537 351.592 52.4089 350.062 51.9234 348.404C51.4379 346.747 51.3236 345.002 51.5888 343.296C51.854 341.589 52.492 339.961 53.4576 338.529C54.4231 337.097 55.6924 335.895 57.1752 335.009L122.882 295.748L132.945 324.657L98.7319 356.764L120.856 403.522Z" fill="black"/>
<path d="M132.405 434.751C132.371 434.796 132.336 434.841 132.302 434.885C131.425 440.017 129.886 444.698 126.448 448.087C125.429 450.386 123.599 452.228 121.307 453.263C119.016 454.298 116.423 454.453 114.025 453.698V453.698C111.763 452.986 109.819 451.51 108.525 449.522C107.231 447.535 106.668 445.16 106.932 442.804L109.494 419.898C115.641 418.485 120.33 414.99 122.703 408.188L128.677 412.258C130.445 413.452 131.951 414.994 133.103 416.79C134.255 418.586 135.029 420.598 135.378 422.703C135.727 424.808 135.643 426.962 135.132 429.033C134.621 431.105 133.693 433.05 132.405 434.751V434.751Z" fill="black"/>
<path d="M138.906 174.692C150.564 174.692 160.014 165.242 160.014 153.585C160.014 141.927 150.564 132.477 138.906 132.477C127.249 132.477 117.799 141.927 117.799 153.585C117.799 165.242 127.249 174.692 138.906 174.692Z" fill="white"/>
<path d="M157.185 187.327L123.909 214.886L121.318 203.542L127.126 194.689C128.738 186.002 127.697 176.424 124.927 166.263L146.638 166.283C147.575 174.494 150.771 181.657 157.185 187.327Z" fill="white"/>
<path d="M166.554 259.617L121.631 273.301L118.136 257.324C109.717 246.02 106.058 235.703 111.566 227.285L108.794 214.614C116.745 208.354 122.997 201.949 126.43 195.304L154.069 184.504L174.388 185.754L180.388 205.861L166.554 259.617Z" fill="#060606"/>
<path d="M198.468 222.106C188.892 222.004 179.521 224.876 171.646 230.324L174.388 185.754C177.172 186.126 179.81 187.216 182.045 188.917C184.279 190.618 186.032 192.871 187.132 195.456L198.468 222.106Z" fill="black"/>
<path d="M120.715 469.963L106.457 466.454L108.556 345.301L127.702 324.334L123.416 297.754L120.643 267.977L167.411 256.38C183.219 285.083 192.773 311.179 178.826 327.48L120.715 469.963Z" fill="black"/>
<path d="M117.441 510.869C117.377 510.894 117.313 510.919 117.248 510.944C113.108 515.751 108.559 519.671 102.84 521.049C100.331 522.809 97.2625 523.582 94.2195 523.223C91.1765 522.863 88.3725 521.396 86.3429 519.1V519.1C84.4289 516.935 83.3265 514.172 83.2243 511.284C83.1221 508.396 84.0266 505.562 85.7829 503.267L102.853 480.962C110.16 483.35 117.252 482.646 124.004 477.036L127.684 485.039C128.78 487.398 129.383 489.955 129.457 492.554C129.531 495.153 129.075 497.74 128.117 500.157C127.158 502.574 125.717 504.77 123.882 506.612C122.046 508.454 119.854 509.902 117.441 510.869V510.869Z" fill="black"/>
<path d="M65.3545 321.814L52.8395 332.53C51.8009 333.419 51.0036 334.556 50.5216 335.835C50.0395 337.115 49.8882 338.495 50.0818 339.848C50.2753 341.202 50.8074 342.484 51.6288 343.577C52.4501 344.67 53.534 345.538 54.7802 346.101V346.101C56.6561 346.948 58.7836 347.051 60.7325 346.389C62.6814 345.727 64.3063 344.35 65.2789 342.536L74.329 325.656L115.833 249.917L100.223 246.983L65.3545 321.814Z" fill="white"/>
<path d="M118.334 252.045C110.227 249.598 102.634 248.157 96.7443 250.059C97.9788 234.782 100.523 221.136 108.794 214.614L120.552 215.996L118.334 252.045Z" fill="black"/>
<path d="M162.47 158.69L117.324 155.913L117.88 146.884C133.639 136.257 148.687 137.183 163.025 149.661L162.47 158.69Z" fill="#2F2E41"/>
</svg>
