<svg width="809" height="760" viewBox="0 0 809 760" fill="none" xmlns="http://www.w3.org/2000/svg">
<g clip-path="url(#clip0)">
<path d="M469.692 496.679V759.925H808.307V496.679H469.692ZM764.09 567.077H737.864V540.852H764.09V567.077Z" fill="black"/>
<path d="M441.292 496.679H0V565.494H441.292V496.679Z" fill="black"/>
<path d="M441.292 593.894H0V662.709H441.292V593.894Z" fill="black"/>
<path d="M441.292 691.109H0V759.925H441.292V691.109Z" fill="black"/>
<path d="M100.492 164.617H78.646V193.017H100.492V164.617Z" fill="#3F3F3F"/>
<path d="M667.399 408.202V386.355H638.999V408.202H667.399Z" fill="#3F3F3F"/>
<path d="M310.172 593.894H441.292V662.709H270.444L310.172 593.894Z" fill="white"/>
<path d="M254.038 691.109H441.292V759.925H214.311L254.038 691.109Z" fill="white"/>
<path d="M324.274 338.242C322.394 336.357 320.527 334.409 318.726 332.454L320.68 330.653C322.458 332.584 324.3 334.506 326.155 336.365L324.274 338.242Z" fill="#3F3D56"/>
<path d="M308.166 319.986C304.831 315.703 301.637 311.231 298.672 306.692L300.896 305.238C303.822 309.716 306.973 314.129 310.262 318.354L308.166 319.986ZM290.314 292.656C287.735 287.886 285.324 282.946 283.148 277.977L285.582 276.911C287.729 281.814 290.107 286.686 292.651 291.392L290.314 292.656ZM277.224 262.755C275.47 257.632 273.906 252.365 272.573 247.099L275.149 246.447C276.463 251.643 278.007 256.84 279.737 261.894L277.224 262.755ZM271.832 230.673L269.213 231.115C268.311 225.758 267.62 220.307 267.16 214.916L269.807 214.69C270.261 220.01 270.943 225.388 271.832 230.673V230.673ZM269.099 198.595L266.442 198.602C266.428 193.178 266.641 187.688 267.075 182.284L269.724 182.496C269.295 187.828 269.085 193.245 269.099 198.595V198.595ZM271.681 166.504L269.059 166.072C269.941 160.719 271.06 155.335 272.383 150.07L274.96 150.718C273.654 155.912 272.551 161.223 271.681 166.504V166.504ZM627.435 89.6097C624.464 85.1662 621.267 80.7886 617.932 76.598L620.011 74.9436C623.391 79.1915 626.632 83.6287 629.643 88.1326L627.435 89.6097ZM279.534 135.259L277.019 134.401C278.771 129.27 280.76 124.146 282.931 119.169L285.366 120.232C283.224 125.142 281.262 130.197 279.534 135.259V135.259ZM607.387 64.4139C603.722 60.5175 599.849 56.724 595.875 53.1395L597.655 51.1662C601.683 54.7998 605.608 58.6447 609.322 62.5938L607.387 64.4139ZM292.413 105.736L290.072 104.477C292.642 99.699 295.441 94.9703 298.393 90.4203L300.622 91.8658C297.71 96.3553 294.948 101.021 292.413 105.736ZM583.477 42.8456C579.222 39.5973 574.781 36.4866 570.276 33.5994L571.71 31.3626C576.275 34.2889 580.776 37.4415 585.089 40.733L583.477 42.8456ZM309.938 78.7156L307.835 77.0926C311.148 72.7999 314.681 68.5912 318.335 64.5836L320.298 66.3735C316.692 70.3281 313.207 74.4803 309.938 78.7156L309.938 78.7156ZM556.363 25.4649C551.635 22.955 546.745 20.6106 541.829 18.4976L542.878 16.0561C547.861 18.1984 552.817 20.5739 557.609 23.1177L556.363 25.4649ZM331.632 54.9253L329.823 52.9803C333.796 49.2845 337.968 45.7122 342.225 42.3621L343.868 44.4502C339.668 47.7549 335.552 51.2794 331.632 54.9253ZM526.773 12.7475C521.691 11.0438 516.482 9.53353 511.292 8.25887L511.926 5.67803C517.187 6.97074 522.466 8.50173 527.617 10.2279L526.773 12.7475ZM356.924 35.0219L355.459 32.8058C359.982 29.8166 364.685 26.9812 369.436 24.3788L370.712 26.7093C366.025 29.2761 361.386 32.073 356.924 35.0219ZM495.493 5.06494C490.21 4.2237 484.824 3.59394 479.484 3.19361L479.684 0.544556C485.095 0.950096 490.555 1.58815 495.911 2.4411L495.493 5.06494ZM385.151 19.5632L384.073 17.1351C389.023 14.9357 394.132 12.915 399.259 11.1282L400.133 13.6372C395.075 15.4002 390.035 17.3937 385.151 19.5632ZM463.376 2.65672C458.036 2.69972 452.621 2.96731 447.282 3.45281L447.042 0.806496C452.453 0.315016 457.942 0.04315 463.354 0L463.376 2.65672ZM415.552 8.96592L414.886 6.39368C420.128 5.03642 425.515 3.8751 430.85 2.94711L431.306 5.56517C426.037 6.48041 420.725 7.62713 415.552 8.96592Z" fill="#3F3D56"/>
<path d="M639.617 110.545C638.44 108.197 637.198 105.841 635.926 103.542L638.251 102.255C639.54 104.586 640.799 106.974 641.991 109.355L639.617 110.545Z" fill="#3F3D56"/>
<path d="M710.873 759.925L586.733 544.915L558.879 496.679L494.564 385.263L462.592 329.894L430.62 385.263L366.305 496.679L338.451 544.915L326.567 565.494H441.292V496.679H469.692V759.925H710.873ZM551.585 649.088C554.738 649.088 557.82 650.023 560.441 651.774C563.063 653.526 565.106 656.016 566.313 658.929C567.52 661.842 567.835 665.047 567.22 668.139C566.605 671.232 565.087 674.072 562.857 676.302C560.628 678.531 557.787 680.05 554.695 680.665C551.602 681.28 548.397 680.964 545.484 679.758C542.571 678.551 540.081 676.508 538.329 673.886C536.578 671.264 535.643 668.182 535.643 665.029C535.648 660.803 537.329 656.751 540.317 653.762C543.306 650.773 547.358 649.092 551.585 649.088ZM459.631 439.679L441.743 420.5L460.921 402.612L478.809 421.791L459.631 439.679Z" fill="#F5F5F5"/>
<path d="M442.237 287.205C449.574 287.205 455.522 281.257 455.522 273.92C455.522 266.583 449.574 260.635 442.237 260.635C434.9 260.635 428.952 266.583 428.952 273.92C428.952 281.257 434.9 287.205 442.237 287.205Z" fill="#F2F2F2"/>
<path d="M457.528 81.7303C432.071 86.6341 408.641 98.9765 390.199 117.197C371.757 135.417 359.132 158.697 353.921 184.092C348.709 209.487 351.146 235.858 360.921 259.869C370.697 283.879 387.374 304.452 408.842 318.985C430.31 333.518 455.605 341.359 481.529 341.515C507.453 341.672 532.842 334.138 554.484 319.866C576.126 305.593 593.05 285.224 603.115 261.333C613.181 237.442 615.936 211.103 611.032 185.647C607.776 168.744 601.223 152.649 591.747 138.279C582.27 123.909 570.056 111.546 555.802 101.897C541.548 92.2473 525.532 85.4998 508.671 82.0396C491.809 78.5794 474.43 78.4743 457.528 81.7303ZM445.252 289.574C442.156 290.17 438.953 289.835 436.047 288.611C433.142 287.387 430.664 285.329 428.928 282.696C427.193 280.064 426.276 276.976 426.295 273.824C426.314 270.671 427.268 267.594 429.036 264.983C430.803 262.372 433.305 260.344 436.225 259.155C439.146 257.966 442.353 257.67 445.441 258.304C448.53 258.937 451.361 260.473 453.577 262.716C455.793 264.959 457.294 267.808 457.891 270.904C458.686 275.056 457.801 279.353 455.432 282.853C453.063 286.353 449.402 288.77 445.252 289.574ZM533.581 173.257L507.829 178.218L502.868 152.465L528.62 147.505L533.581 173.257Z" fill="#F2F2F2"/>
<path d="M207.586 447.023C255.244 447.023 293.878 408.389 293.878 360.731C293.878 313.073 255.244 274.438 207.586 274.438C159.928 274.438 121.294 313.073 121.294 360.731C121.294 408.389 159.928 447.023 207.586 447.023Z" fill="black"/>
<path d="M174.258 478.9L148.461 474.23L156.828 420.366L182.624 425.036L174.258 478.9Z" fill="black"/>
<path d="M234.216 434.375L208.42 429.706L200.054 475.924L225.85 480.593L234.216 434.375Z" fill="black"/>
<path d="M234.121 498.187C237.045 494.734 231.952 485.614 222.745 477.817C213.538 470.019 203.703 466.497 200.779 469.95C197.855 473.402 202.949 482.522 212.156 490.32C221.363 498.117 231.197 501.639 234.121 498.187Z" fill="black"/>
<path d="M183.604 496.688C186.528 493.235 181.434 484.115 172.227 476.317C163.02 468.52 153.186 464.998 150.262 468.451C147.338 471.903 152.431 481.023 161.638 488.821C170.846 496.618 180.68 500.14 183.604 496.688Z" fill="black"/>
<path d="M213.627 369.115C229.915 369.115 243.12 355.911 243.12 339.623C243.12 323.335 229.915 310.131 213.627 310.131C197.339 310.131 184.135 323.335 184.135 339.623C184.135 355.911 197.339 369.115 213.627 369.115Z" fill="white"/>
<path d="M225.748 338.883C231.178 338.883 235.579 334.481 235.579 329.052C235.579 323.623 231.178 319.221 225.748 319.221C220.319 319.221 215.918 323.623 215.918 329.052C215.918 334.481 220.319 338.883 225.748 338.883Z" fill="#3F3D56"/>
<path d="M139.514 266.854C138.216 234.907 165.749 207.848 201.011 206.416C236.273 204.984 265.91 229.72 267.208 261.667C268.506 293.614 243.994 300.872 208.732 302.305C173.471 303.737 140.811 298.801 139.514 266.854Z" fill="#F5F5F5"/>
<path d="M290.291 358.212C313.518 352.888 330.992 342.661 329.321 335.37C327.649 328.078 307.465 326.483 284.239 331.807C261.012 337.131 243.538 347.358 245.21 354.65C246.881 361.941 267.065 363.536 290.291 358.212Z" fill="black"/>
<path d="M120.903 386.381C144.129 381.058 161.603 370.831 159.932 363.539C158.261 356.248 138.077 354.653 114.85 359.976C91.6238 365.3 74.1498 375.527 75.8211 382.819C77.4925 390.11 97.6762 391.705 120.903 386.381Z" fill="black"/>
<path d="M183.886 394.738C183.426 397.278 183.471 399.885 184.018 402.408C184.566 404.931 185.605 407.322 187.076 409.444C190.048 413.729 194.6 416.658 199.731 417.587C204.862 418.516 210.152 417.368 214.437 414.397C218.722 411.426 221.651 406.874 222.58 401.742C224.514 391.057 216.253 387.276 205.568 385.342C194.883 383.408 185.82 384.053 183.886 394.738Z" fill="white"/>
</g>
<defs>
<clipPath id="clip0">
<rect width="808.307" height="759.925" fill="white"/>
</clipPath>
</defs>
</svg>
